<?xml version="1.0" encoding="iso-8859-1"?>
<!-- Generator: Adobe Illustrator 19.0.0, SVG Export Plug-In . SVG Version: 6.00 Build 0)  -->
<svg version="1.1" id="Capa_1" xmlns="http://www.w3.org/2000/svg" xmlns:xlink="http://www.w3.org/1999/xlink" x="0px" y="0px"
	 viewBox="0 0 512.001 512.001" style="enable-background:new 0 0 512.001 512.001;" xml:space="preserve">
<g>
	<g>
		<g>
			<path d="M499.646,467.879h-8.031v-47.83c0-6.812-5.542-12.354-12.354-12.354H455.97l-1.406-20.389
				c-6.08-88.152-9.786-177.653-11.016-266.018c-0.058-4.142-3.457-7.494-7.604-7.395c-4.142,0.058-7.452,3.462-7.395,7.604
				c0.067,4.797,0.144,9.598,0.225,14.401h-51.438c-4.142,0-7.5,3.358-7.5,7.5c0,4.142,3.358,7.5,7.5,7.5h51.717
				c0.353,17.623,0.8,35.278,1.347,52.949h-43.356c-4.142,0-7.5,3.358-7.5,7.5c0,4.142,3.358,7.5,7.5,7.5h43.846
				c0.71,20.884,1.558,41.779,2.536,62.656h-26.968c-4.142,0-7.5,3.358-7.5,7.5c0,4.142,3.358,7.5,7.5,7.5h27.693
				c1.049,21.027,2.232,42.026,3.549,62.965c-0.673-0.198-1.384-0.309-2.121-0.309h-9.707c-4.142,0-7.5,3.358-7.5,7.5
				c0,4.142,3.358,7.5,7.5,7.5h9.707c1.076,0,2.098-0.231,3.023-0.639c0.326,4.943,0.656,9.883,0.996,14.818l5.485,79.54h-13.079
				c-31.758-100.138-56.457-217.711-71.482-340.418c-1.079-8.809-6.963-15.997-14.824-19.071c0.203-18.113,0.31-36.419,0.31-54.5
				V15.032c8.162,0.196,16.298,1.295,24.221,3.275l57.85,14.463v21.121c0,4.666,0.009,9.359,0.023,14.059H367.63
				c-4.142,0-7.5,3.358-7.5,7.5c0,4.142,3.358,7.5,7.5,7.5h60.538c0.026,4.326,0.055,8.647,0.093,12.951
				c0.035,4.12,3.386,7.435,7.498,7.435c0.022,0,0.044,0,0.066,0c4.142-0.036,7.471-3.422,7.435-7.564
				c-0.12-13.912-0.181-28.002-0.181-41.879V30.704c0-5.679-3.848-10.607-9.357-11.984L373.868,3.755
				C363.9,1.263,353.637,0,343.363,0c-6.812,0-12.354,5.542-12.354,12.354v41.537c0,18.16-0.108,36.549-0.314,54.739
				c-3.478,2.154-5.837,5.974-5.895,10.332c-1.197,89.179-4.913,179.464-11.042,268.345l-1.406,20.389h-23.586v-60.449
				c0-1.005-0.202-2-0.594-2.926l-7.631-18.012v-85.84c0-6.952-4.152-12.939-10.099-15.652l-35.564-83.885V85.156
				c0-4.142-3.358-7.5-7.5-7.5c-4.142,0-7.5,3.358-7.5,7.5v57.61L184.35,224.8c-5.966,2.705-10.134,8.703-10.134,15.668v85.84
				l-7.631,18.012c-0.392,0.925-0.594,1.92-0.594,2.926v60.449h-26.18c1.552-5.417,2.352-11.026,2.352-16.768
				c0-25.795-16.131-47.878-38.828-56.735V241.59c11.652-7.351,19.414-20.33,19.414-35.095c0-20.308-14.675-37.241-33.975-40.782
				V130.17c8.483-3.076,14.561-11.214,14.561-20.746c0-9.532-6.078-17.67-14.561-20.746v-42.35c0-4.142-3.358-7.5-7.5-7.5
				c-4.142,0-7.5,3.358-7.5,7.5v42.35c-8.483,3.076-14.561,11.214-14.561,20.746c0,9.532,6.078,17.67,14.561,20.746v35.542
				c-19.3,3.541-33.975,20.475-33.975,40.782c0,14.766,7.762,27.745,19.414,35.095v92.603c-22.697,8.857-38.828,30.94-38.828,56.735
				c0,19.2,9.018,37.152,24.268,48.641v28.31H12.354C5.542,467.879,0,473.421,0,480.232v19.414C0,506.458,5.542,512,12.354,512
				h487.293c6.812,0,12.354-5.542,12.354-12.354v-19.414C512,473.421,506.458,467.879,499.646,467.879z M476.615,422.695v45.184
				H460.12l-3.116-45.184H476.615z M328.723,388.339c0.326-4.722,0.641-9.449,0.953-14.179h37.955c4.142,0,7.5-3.358,7.5-7.5
				c0-4.142-3.358-7.5-7.5-7.5h-36.99c1.309-20.834,2.484-41.73,3.528-62.656h23.755c4.142,0,7.5-3.358,7.5-7.5
				c0-4.142-3.358-7.5-7.5-7.5h-23.03c0.977-20.875,1.824-41.769,2.534-62.656h7.392c4.142,0,7.5-3.358,7.5-7.5
				c0-4.142-3.358-7.5-7.5-7.5h-6.903c0.843-27.274,1.46-54.519,1.842-81.663c3.101,0.996,5.463,3.719,5.877,7.099
				c14.908,121.761,39.291,238.584,70.635,338.595h-93.032L328.723,388.339z M288.767,422.695h22.551l-0.974,14.121h-21.577V422.695
				z M227.704,162.44l25.786,60.822h-52.128L227.704,162.44z M180.99,348.77l7.631-18.012c0.392-0.925,0.594-1.92,0.594-2.926
				v-87.363c0-1.217,0.99-2.207,2.207-2.207h71.911c1.217,0,2.207,0.99,2.207,2.207v87.363c0,1.005,0.202,2,0.594,2.926
				l7.631,18.012v88.047H180.99V348.77z M165.99,422.695v14.121h-16.768c-6.812,0-12.354,5.542-12.354,12.354v18.709h-18.975
				v-45.184H165.99z M81.273,102.363c3.893,0,7.061,3.167,7.061,7.061c0,3.894-3.167,7.061-7.061,7.061s-7.061-3.167-7.061-7.061
				C74.212,105.53,77.38,102.363,81.273,102.363z M54.799,206.495c0-14.598,11.876-26.475,26.475-26.475
				s26.475,11.876,26.475,26.475s-11.876,26.475-26.475,26.475S54.799,221.092,54.799,206.495z M88.334,247.355v83.106
				c-2.318-0.269-4.671-0.422-7.061-0.422s-4.742,0.153-7.061,0.422v-83.106c2.296,0.396,4.653,0.614,7.061,0.614
				S86.038,247.751,88.334,247.355z M44.652,390.928v27.624c-5.928-7.857-9.267-17.506-9.267-27.624
				c0-25.303,20.585-45.889,45.889-45.889s45.889,20.585,45.889,45.889c0,5.81-1.065,11.439-3.162,16.768h-6.106v-16.768
				c0-6.812-5.542-12.354-12.354-12.354H57.006C50.194,378.574,44.652,384.116,44.652,390.928z M102.895,393.574v74.305H59.652
				v-74.305H102.895z M497,497H15v-14.121h165.285c4.142,0,7.5-3.358,7.5-7.5c0-4.142-3.358-7.5-7.5-7.5h-28.416v-16.063h157.44
				l-1.108,16.063h-100.25c-4.142,0-7.5,3.358-7.5,7.5c0,4.142,3.358,7.5,7.5,7.5h106.698c0.012,0.001,0.024,0.004,0.037,0.004
				c0.176,0.012,0.35,0.018,0.523,0.018c0.157,0,0.31-0.013,0.465-0.022H497V497z"/>
			<path d="M212.818,252.383c-4.142,0-7.5,3.358-7.5,7.5v155.313c0,4.142,3.358,7.5,7.5,7.5c4.142,0,7.5-3.358,7.5-7.5V259.883
				C220.318,255.741,216.96,252.383,212.818,252.383z"/>
			<path d="M241.939,252.383c-4.142,0-7.5,3.358-7.5,7.5v155.313c0,4.142,3.358,7.5,7.5,7.5c4.142,0,7.5-3.358,7.5-7.5V259.883
				C249.439,255.741,246.081,252.383,241.939,252.383z"/>
		</g>
	</g>
</g>
<g>
</g>
<g>
</g>
<g>
</g>
<g>
</g>
<g>
</g>
<g>
</g>
<g>
</g>
<g>
</g>
<g>
</g>
<g>
</g>
<g>
</g>
<g>
</g>
<g>
</g>
<g>
</g>
<g>
</g>
</svg>
