<?xml version="1.0" encoding="iso-8859-1"?>
<!-- Generator: Adobe Illustrator 17.1.0, SVG Export Plug-In . SVG Version: 6.00 Build 0)  -->
<!DOCTYPE svg PUBLIC "-//W3C//DTD SVG 1.1//EN" "http://www.w3.org/Graphics/SVG/1.1/DTD/svg11.dtd">
<svg version="1.1" id="Capa_1" xmlns="http://www.w3.org/2000/svg" xmlns:xlink="http://www.w3.org/1999/xlink" x="0px" y="0px"
	 viewBox="0 0 476.709 476.709" style="enable-background:new 0 0 476.709 476.709;" xml:space="preserve">
<path d="M468.709,5.095h-35.706c-4.418,0-8,3.582-8,8v163.511h-17.966c-1.788-28.732-25.719-51.563-54.894-51.563H55.014
	C24.679,125.043,0,149.722,0,180.057v116.595c0,30.335,24.679,55.014,55.014,55.014h76.633c9.299,0,18.517-3.073,25.956-8.652
	l32.61-24.457c3.886-2.915,8.508-4.456,13.366-4.456s9.479,1.541,13.366,4.456l32.609,24.457c7.439,5.58,16.657,8.652,25.956,8.652
	h76.633c30.335,0,55.014-24.679,55.014-55.014v-0.248h17.847v62.703c0,17.076-13.311,32.475-29.672,34.328
	c-0.038,0.004-0.077,0.009-0.115,0.014l-183.494,23.489v-7.652c19.475-3.732,34.24-20.886,34.24-41.432
	c0-23.267-18.928-42.195-42.195-42.195s-42.195,18.929-42.195,42.195c0,20.515,14.72,37.649,34.15,41.416v9.716l-8.065,1.032
	c-13.968,1.615-24.217,13.621-23.343,27.36c0.863,13.589,12.192,24.234,25.79,24.234c0.971,0,1.954-0.055,2.922-0.165
	c0.039-0.004,0.077-0.009,0.116-0.014l208.072-26.628c43.748-4.987,75.496-41.019,75.496-85.699V13.095
	C476.709,8.677,473.127,5.095,468.709,5.095z M177.572,367.855c0-14.444,11.751-26.195,26.195-26.195s26.195,11.751,26.195,26.195
	c0,14.444-11.751,26.195-26.195,26.195S177.572,382.299,177.572,367.855z M460.709,21.095v41.78h-19.706v-41.78H460.709z
	 M407.157,218.065h17.847v36.882h-17.847V218.065z M425.003,202.065h-17.847v-9.458h17.847V202.065z M391.157,296.652
	c0,21.513-17.501,39.014-39.014,39.014H275.51c-5.859,0-11.668-1.937-16.356-5.452l-32.609-24.457
	c-6.678-5.008-14.619-7.656-22.966-7.656s-16.289,2.647-22.966,7.656l-32.609,24.457c-4.688,3.516-10.497,5.452-16.356,5.452H55.014
	C33.501,335.666,16,318.165,16,296.652V180.057c0-21.513,17.501-39.014,39.014-39.014h297.129c21.513,0,39.014,17.501,39.014,39.014
	V296.652z M407.157,280.405v-9.458h17.847v9.458H407.157z M399.35,428.916c-0.038,0.004-0.077,0.009-0.115,0.014l-208.058,26.626
	c-0.357,0.039-0.718,0.058-1.073,0.058c-5.178,0-9.493-4.063-9.822-9.249c-0.328-5.15,3.818-9.84,9.241-10.454
	c0.039-0.004,0.077-0.009,0.115-0.014l14.686-1.88c0.306-0.023,0.607-0.059,0.902-0.115l191.969-24.574
	c24.163-2.771,43.81-25.285,43.81-50.219V78.875h19.706v280.232C460.709,395.53,434.904,424.889,399.35,428.916z M371.771,177.882
	c-1.087-9.872-9.471-17.579-19.627-17.579H55.014c-10.893,0-19.754,8.861-19.754,19.754v116.595
	c0,10.893,8.861,19.754,19.754,19.754h76.633c1.731,0,3.415-0.562,4.8-1.6l53.766-40.324c3.886-2.915,8.508-4.456,13.366-4.456
	c4.858,0,9.48,1.541,13.367,4.456l53.765,40.324c1.385,1.039,3.068,1.6,4.8,1.6h76.633c10.893,0,19.754-8.861,19.754-19.754V182.295
	C372.267,180.845,372.226,179.313,371.771,177.882z M180.613,261.682l-51.632,38.724H55.014c-2.07,0-3.754-1.684-3.754-3.754
	V180.057c0-2.07,1.684-3.754,3.754-3.754h242.018l-80.111,80.112c-4.227-1.574-8.722-2.389-13.343-2.389
	C195.232,254.026,187.29,256.674,180.613,261.682z M352.143,300.406h-73.966l-13.029-9.772l44.365-44.365
	c3.124-3.124,3.124-8.189,0-11.313c-3.123-3.124-8.188-3.124-11.314,0l-45.981,45.981l-21.251-15.939l88.694-88.694h32.483
	c1.278,0,2.406,0.645,3.084,1.623l-27.529,27.529c-3.124,3.124-3.124,8.189,0,11.313c1.563,1.562,3.609,2.343,5.657,2.343
	s4.095-0.781,5.657-2.343l16.884-16.884v96.767C355.897,298.722,354.213,300.406,352.143,300.406z M203.768,384.787
	c-9.352,0-16.932-7.581-16.932-16.932s7.581-16.932,16.932-16.932s16.932,7.581,16.932,16.932S213.119,384.787,203.768,384.787z"/>
<g>
</g>
<g>
</g>
<g>
</g>
<g>
</g>
<g>
</g>
<g>
</g>
<g>
</g>
<g>
</g>
<g>
</g>
<g>
</g>
<g>
</g>
<g>
</g>
<g>
</g>
<g>
</g>
<g>
</g>
</svg>
