<?xml version="1.0" encoding="iso-8859-1"?>
<!-- Generator: Adobe Illustrator 19.0.0, SVG Export Plug-In . SVG Version: 6.00 Build 0)  -->
<svg version="1.1" id="Capa_1" xmlns="http://www.w3.org/2000/svg" xmlns:xlink="http://www.w3.org/1999/xlink" x="0px" y="0px"
	 viewBox="0 0 512 512" style="enable-background:new 0 0 512 512;" xml:space="preserve">
<g>
	<g>
		<path d="M444.689,5.802c-37.115,0-67.311,30.195-67.311,67.311c0,37.115,30.196,67.311,67.311,67.311S512,110.229,512,73.113
			C512,35.998,481.805,5.802,444.689,5.802z M444.689,120.425c-26.088,0-47.311-21.224-47.311-47.311
			c0-26.087,21.223-47.311,47.311-47.311c26.087,0,47.311,21.224,47.311,47.311C492,99.201,470.776,120.425,444.689,120.425z"/>
	</g>
</g>
<g>
	<g>
		<path d="M257.733,344.906c-19.02,0-34.495,13.653-34.495,30.435c0,16.782,15.475,30.434,34.495,30.434
			c19.022,0,34.496-13.652,34.496-30.434S276.754,344.906,257.733,344.906z M257.733,385.775c-7.857,0-14.495-4.778-14.495-10.434
			s6.638-10.435,14.495-10.435c7.857,0,14.496,4.779,14.496,10.435C272.229,380.996,265.59,385.775,257.733,385.775z"/>
	</g>
</g>
<g>
	<g>
		<path d="M215.272,322.523h-0.662c-5.522,0-10,4.478-10,10c0,5.523,4.478,10,10,10h0.662c5.522,0,10-4.478,10-10
			C225.272,327.001,220.794,322.523,215.272,322.523z"/>
	</g>
</g>
<g>
	<g>
		<path d="M507.973,494.378l-21.8-117.68c-0.878-4.74-5.013-8.179-9.833-8.179h-26.877c-0.57-3.052-1.445-6.068-2.629-9.01
			l-51.278-127.468c-9.483-23.579-35.928-35.362-59.663-26.972h-34.989v-0.911c28.092-15.923,45.921-46.143,45.921-78.694
			c0-6.932-0.799-13.783-2.349-20.468c8.779-5.676,14.628-13.425,16.69-22.792c0.787-3.574-0.441-7.294-3.203-9.695
			c-2.762-2.403-6.616-3.103-10.046-1.829c-3.195,1.188-6.178,1.79-8.864,1.79c-5.732,0.001-10.714-2.74-16.152-8.887
			c-16.491-18.637-38.865-28.488-64.705-28.488h-0.282c-41.198,0.118-67.808,18.414-86.246,59.308
			c-0.013,0.026-0.024,0.053-0.037,0.079c-0.027,0.061-0.057,0.12-0.084,0.182c-0.039,0.088-0.067,0.18-0.104,0.27
			c-0.079,0.19-0.157,0.382-0.225,0.58c-0.051,0.146-0.092,0.296-0.136,0.445c-0.037,0.127-0.083,0.25-0.115,0.38
			c-0.021,0.087-0.038,0.174-0.06,0.261c-0.003,0.017-0.008,0.033-0.011,0.05c-5.609,22.791-3.521,46.664,5.899,67.261
			c8.133,17.779,21.16,32.152,37.146,41.16h-39.376c-23.74-8.389-50.18,3.393-59.664,26.971L63.622,359.51
			c-1.184,2.941-2.059,5.958-2.629,9.01H26.955c-4.972,0-9.188,3.652-9.898,8.574L0.102,494.773
			c-0.414,2.871,0.439,5.78,2.339,7.974c1.899,2.192,4.657,3.452,7.559,3.452h488.139c2.971,0,5.788-1.321,7.689-3.605
			C507.727,500.31,508.513,497.299,507.973,494.378z M306.431,225.069h31.281v0.001c1.278,0,2.546-0.245,3.732-0.723
			c13.984-5.622,29.933,1.175,35.558,15.158l51.278,127.469c2.71,6.734,2.619,14.157-0.255,20.899
			c-2.874,6.743-8.166,11.948-14.9,14.657c-6.484,2.608-18.02,2.517-26.046,0.259l6.819-108.597c0.173-2.756-0.801-5.46-2.691-7.473
			s-4.528-3.154-7.289-3.154h-84.741l-6.428-33.687L306.431,225.069z M184.068,322.523h-43.157l-1.19-18.957h92.216
			c0.009,0,0.018,0.001,0.026,0.001c0.007,0,0.015-0.001,0.021-0.001h58.864c0.015,0,0.029,0.002,0.044,0.002
			c0.014,0,0.027-0.002,0.041-0.002h82.336l-8.51,135.51H148.228l-6.061-96.553h41.901c5.522,0,10-4.478,10-10
			C194.068,327.001,189.59,322.523,184.068,322.523z M276.344,238.211h-32.037l-8.429-13.141h47.712L276.344,238.211z
			 M278.814,283.566h-35.23l3.852-25.355h26.54L278.814,283.566z M257.97,55.096h0.226c19.946,0,37.142,7.518,49.727,21.741
			c6.395,7.227,13.2,11.901,20.608,14.12c-0.096,0.045-0.186,0.098-0.281,0.145c-6.907,2.904-16.072,4.542-26.711,4.542
			c-17.807,0-38.228-4.687-57.503-13.197c-7.829-3.457-16.244-5.21-25.014-5.21c-5.347,0-10.435,0.652-15.119,1.664
			C217.169,62.325,234.088,55.163,257.97,55.096z M189.432,105.472c5.706-3.023,16.798-8.235,29.59-8.235
			c5.97,0,11.667,1.179,16.936,3.505c22.078,9.749,44.756,14.902,65.581,14.902c8.814,0,16.919-0.964,24.147-2.777
			c0.749,4.138,1.14,8.348,1.14,12.599c0,27.027-15.784,51.991-40.213,63.599c-3.486,1.656-5.708,5.172-5.708,9.032v6.975h-45.908
			v-5.627c0-3.956-2.332-7.54-5.948-9.143C198.995,176.983,182.48,141.06,189.432,105.472z M82.177,366.975l51.278-127.469
			c5.624-13.981,21.573-20.782,35.559-15.158c1.186,0.477,2.453,0.723,3.731,0.723h39.372l16.27,25.366l-5.033,33.13h-94.281
			c-2.761,0-5.399,1.142-7.289,3.154c-1.891,2.013-2.864,4.717-2.691,7.473l6.756,107.596c-8.337,3.128-21.188,3.688-28.517,0.742
			c-6.734-2.709-12.026-7.914-14.9-14.657C79.557,381.132,79.467,373.709,82.177,366.975z M21.544,486.201v-0.002l14.073-97.68
			h26.005c0.609,2.435,1.407,4.842,2.411,7.197c4.969,11.657,14.145,20.667,25.834,25.369c5.779,2.325,12.756,3.436,19.898,3.436
			c5.871,0,11.852-0.753,17.373-2.196l1.719,27.378c0.331,5.268,4.701,9.373,9.98,9.373h235.314c5.279,0,9.649-4.104,9.98-9.373
			l1.674-26.652c4.647,0.971,9.601,1.475,14.493,1.475c7.334-0.001,14.522-1.119,20.29-3.439
			c11.69-4.702,20.865-13.712,25.834-25.369c1.004-2.356,1.801-4.763,2.411-7.197h19.189l18.094,97.68H21.544z"/>
	</g>
</g>
<g>
	<g>
		<path d="M447.987,40.633h-0.012c-5.518,0-9.994,4.47-10,9.988l-0.02,18.616l-8.174-0.032h-0.041c-5.504,0-9.978,4.451-9.999,9.96
			c-0.021,5.523,4.438,10.018,9.96,10.04l18.202,0.072h0.04c2.643,0,5.179-1.046,7.053-2.911c1.884-1.874,2.944-4.421,2.947-7.077
			l0.032-28.644C457.981,45.121,453.509,40.639,447.987,40.633z"/>
	</g>
</g>
<g>
</g>
<g>
</g>
<g>
</g>
<g>
</g>
<g>
</g>
<g>
</g>
<g>
</g>
<g>
</g>
<g>
</g>
<g>
</g>
<g>
</g>
<g>
</g>
<g>
</g>
<g>
</g>
<g>
</g>
</svg>
